<?xml version="1.0" encoding="utf-8"?>
<!-- Generator: Adobe Illustrator 19.2.0, SVG Export Plug-In . SVG Version: 6.00 Build 0)  -->
<svg version="1.1" id="Layer_1" xmlns="http://www.w3.org/2000/svg" xmlns:xlink="http://www.w3.org/1999/xlink" x="0px" y="0px"
	 viewBox="0 0 168.1 56.8" style="enable-background:new 0 0 168.1 56.8;" xml:space="preserve">
<style type="text/css">
	.st0{fill:url(#SVGID_1_);}
	.st1{fill:#FFFFFF;}
</style>
<title>brave_logo_horz</title>
<linearGradient id="SVGID_1_" gradientUnits="userSpaceOnUse" x1="24.445" y1="58" x2="24.445" y2="1.2197" gradientTransform="matrix(1 0 0 -1 -0.25 58)">
	<stop  offset="0" style="stop-color:#F9BA16"/>
	<stop  offset="4.000000e-02" style="stop-color:#FAA612"/>
	<stop  offset="0.11" style="stop-color:#FC8B0C"/>
	<stop  offset="0.19" style="stop-color:#FD7508"/>
	<stop  offset="0.28" style="stop-color:#FE6404"/>
	<stop  offset="0.4" style="stop-color:#FF5902"/>
	<stop  offset="0.56" style="stop-color:#FF5200"/>
	<stop  offset="1" style="stop-color:#FF5000"/>
</linearGradient>
<path class="st0" d="M48.4,18.4l-4.1-7.1l0.5-2.3L41,5.1l-3.1,0.4L32.8,0h-8.6h-0.1l-8.6,0.1l-5,5.5L7.4,5.1L3.6,9l0.5,2.3L0,18.4
	l1.1,4.3l5.1,19.5c0.6,2.2,2,4.2,3.9,5.6c0,0,6.2,4.4,12.4,8.4c1,0.8,2.4,0.8,3.4,0c6.9-4.5,12.4-8.4,12.4-8.4
	c1.9-1.4,3.2-3.3,3.8-5.6l5.1-19.5L48.4,18.4z"/>
<path class="st1" d="M25.5,33.8c-0.3-0.1-0.7-0.3-1-0.4h-0.6c-0.3,0.1-0.7,0.2-1,0.4l-1.5,0.6c-0.5,0.2-1.3,0.6-1.7,0.8l-2.8,1.5
	c-0.3,0.1-0.4,0.4-0.3,0.7c0,0.1,0.1,0.3,0.3,0.3l2.4,1.7c0.4,0.3,1.1,0.8,1.5,1.2l0.7,0.6l1.4,1.3l0.6,0.6c0.4,0.3,1,0.3,1.4,0
	l0.7-0.6l1.4-1.3l0.7-0.6c0.4-0.3,1.1-0.9,1.5-1.2l2.5-1.8c0.3-0.1,0.4-0.4,0.3-0.7c-0.1-0.2-0.2-0.3-0.4-0.3l-2.9-1.4
	c-0.5-0.2-1.2-0.6-1.7-0.8L25.5,33.8z"/>
<path class="st1" d="M42.8,19.5l0.1-0.2c0-0.3,0-0.7-0.1-1c-0.2-0.6-0.5-1.2-0.9-1.7l-1.6-2.3c-0.3-0.4-0.8-1.1-1.1-1.5L37.1,10
	c-0.2-0.3-0.4-0.5-0.6-0.7l0,0l-0.9,0.2L32.2,10l-1.4,0.3c-0.5,0-1,0-1.4-0.2l-2.6-0.8c-0.5-0.2-1.3-0.4-1.8-0.5c-0.3,0-0.5,0-0.8,0
	c-0.3,0-0.5,0-0.8,0c-0.5,0.1-1.3,0.4-1.8,0.5L19,10.1c-0.4,0.2-0.9,0.2-1.4,0.2L16.1,10l-3.3-0.6l-0.9-0.2l0,0
	c-0.2,0.2-0.4,0.5-0.6,0.7l-2.2,2.7c-0.3,0.4-0.8,1.1-1.1,1.5l-1.6,2.3c-0.3,0.4-0.5,0.8-0.8,1.2c-0.1,0.5-0.2,1-0.2,1.5l0.1,0.2
	c0,0.2,0.1,0.3,0.2,0.5c0.4,0.5,0.8,1,1.3,1.4l5.5,5.1c0.4,0.4,0.5,1,0.3,1.6l-0.9,2.2c-0.2,0.6-0.2,1.2,0,1.8l0.2,0.5
	c0.3,0.8,0.8,1.5,1.5,2.1l0.9,0.7c0.5,0.3,1.1,0.4,1.6,0.2l3.1-1.5c0.6-0.3,1.1-0.6,1.6-1l2.5-2.2c0.4-0.4,0.4-1,0.1-1.4
	c0,0,0,0,0,0l-4.3-3.7c-0.4-0.4-0.5-1-0.3-1.5l1.4-3.5c0.2-0.5,0.2-1.1,0-1.7c-0.3-0.5-0.7-0.9-1.2-1.1l-6.8-2.6
	c-0.5-0.2-0.5-0.4,0.1-0.4l3.5-0.3c0.6,0,1.3,0,1.9,0.2l3.5,1.3c0.5,0.2,0.8,0.7,0.7,1.2l-1.3,5.6c-0.1,0.5-0.2,1.1-0.3,1.3
	c0.2,0.3,0.5,0.5,0.9,0.5l2.5,0.5c0.6,0.1,1.3,0.1,1.9,0l2.2-0.5c0.4,0,0.7-0.2,0.9-0.5c0-0.2-0.2-0.7-0.3-1.2L26.8,17
	c-0.1-0.5,0.2-1.1,0.7-1.2l3.5-1.3c0.6-0.2,1.2-0.3,1.8-0.2l3.5,0.3c0.5,0,0.5,0.2,0.1,0.4l-6.8,2.6c-0.5,0.2-1,0.6-1.2,1.1
	c-0.2,0.5-0.2,1.1,0,1.7l1.5,3.5c0.2,0.5,0,1.1-0.4,1.5l-4.3,3.7c-0.4,0.4-0.4,1,0,1.4c0,0,0,0,0,0l2.5,2.2c0.5,0.4,1,0.7,1.6,1
	l3.1,1.5c0.5,0.2,1.1,0.1,1.6-0.2l0.9-0.7c0.7-0.5,1.2-1.3,1.5-2.1l0.2-0.5c0.2-0.6,0.2-1.2,0-1.8l-1-2.1c-0.2-0.5-0.1-1.1,0.3-1.5
	l5.5-5.1c0.5-0.4,0.9-0.9,1.3-1.4C42.8,19.8,42.8,19.6,42.8,19.5z"/>
<path class="st1" d="M59.2,28.2V11h1.7c1.3,0,2.4,1.1,2.4,2.4l0,0v7.7c2.6-2.4,4.9-3.3,7.9-3.4c5.8-0.2,10.6,4.1,11.2,9.9
	c0.7,5.9-3.5,11.2-9.4,11.9c-0.5,0.1-1,0.1-1.5,0.1C64.3,39.6,59.2,35.2,59.2,28.2z M63,29.6c0.6,3.7,3.7,6.4,7.4,6.6
	c4.7,0.1,7.9-3,7.9-7.5s-3.1-7.5-7.7-7.5C65.8,21.2,62.5,24.7,63,29.6z"/>
<path class="st1" d="M89.2,18.2v3.1c2.6-2.9,4.1-3.6,7.1-3.6c0.9,0,1.7,0.1,2.6,0.2v4.1c-0.9-0.3-1.9-0.4-2.8-0.4
	c-2-0.1-3.9,0.7-5.3,2.1c-1.1,1-1.7,2.5-1.5,4v11.3h-4.2V18.2H89.2z"/>
<path class="st1" d="M99.9,25c0-1.5,0.6-3,1.5-4.2c1.7-2.1,4.9-3.2,9.3-3.2c3.5,0,6.1,0.5,7.9,1.7c1.5,1,2.1,2.4,2.1,4.9v9.2
	c0,2,0.5,2.7,2,2.7c0.3,0,0.7,0,1-0.1v2.8c-0.7,0.2-1.5,0.4-2.2,0.3c-2.7,0-3.9-0.8-4.7-3.1c-2.5,2.3-5.8,3.6-9.2,3.4
	c-5.2,0-8.3-2.3-8.3-6.2c0-2.2,1.3-4.1,3.3-5c1.6-0.7,2.5-0.9,7-1.4c3.8-0.4,4.5-0.5,5.6-0.8c1-0.2,1.7-1,1.7-2.1
	c0-2.2-1.9-3.2-5.8-3.2c-3.7,0-5.6,0.7-6.4,2.6c-0.4,1-1.3,1.6-2.3,1.6L99.9,25L99.9,25z M116.6,28.5c-2.7,0.8-5.4,1.3-8.2,1.5
	c-3.8,0.4-5,1.1-5,3c0,2.1,1.7,3.2,5.2,3.2c2.3,0.1,4.7-0.6,6.5-2.1c1.2-1.1,1.5-1.9,1.5-3.9L116.6,28.5L116.6,28.5z"/>
<path class="st1" d="M133.8,38.9h-1.1c-1,0-1.8-0.5-2.3-1.4l-9.1-19.3h2.5c1.5,0,2.8,0.9,3.4,2.2l6.1,13.9l6.3-13.9
	c0.6-1.3,1.9-2.2,3.4-2.2h2.3L136,37.5C135.6,38.4,134.7,38.9,133.8,38.9z"/>
<path class="st1" d="M148.2,29.7c0.4,4,3.6,6.5,8.2,6.5c2.6,0,4.6-0.8,5.9-2.4c0.7-0.9,1.8-1.4,3-1.4h2.4c-2.1,4.7-6,7-11.7,7
	c-7.1,0-11.9-4.3-11.9-10.8s4.9-11,12-11c5.1,0,9.3,2.3,10.9,6.2c0.8,1.9,1.1,3.9,1,5.9L148.2,29.7L148.2,29.7z M163.8,26.5
	c-1-3.7-3.8-5.7-7.7-5.7s-6.7,2.1-7.8,5.7H163.8z"/>
</svg>
