<svg xmlns="http://www.w3.org/2000/svg" viewBox="0 0 40.48 26.02"><title>eye_icon</title><g id="Layer_2" data-name="Layer 2"><g id="Layer_1_copy" data-name="Layer 1 copy"><path d="M37.59,13A22.2,22.2,0,0,0,29,5a9.86,9.86,0,0,1,1.38,5.08,9.75,9.75,0,0,1-3,7.15,9.75,9.75,0,0,1-7.15,3,9.75,9.75,0,0,1-7.15-3,9.75,9.75,0,0,1-3-7.15A9.86,9.86,0,0,1,11.5,5a22.2,22.2,0,0,0-8.61,8,23.31,23.31,0,0,0,7.53,7.38,18.92,18.92,0,0,0,19.63,0A23.31,23.31,0,0,0,37.59,13ZM21.32,4.34a1.08,1.08,0,0,0-1.08-1.08,6.61,6.61,0,0,0-4.85,2,6.61,6.61,0,0,0-2,4.85,1.08,1.08,0,1,0,2.17,0A4.53,4.53,0,0,1,16.92,6.8a4.53,4.53,0,0,1,3.32-1.38,1.08,1.08,0,0,0,1.08-1.08ZM40.48,13A3.13,3.13,0,0,1,40,14.57a24,24,0,0,1-8.5,8.32A22,22,0,0,1,20.24,26,21.92,21.92,0,0,1,9,22.88a24.11,24.11,0,0,1-8.5-8.31,2.91,2.91,0,0,1,0-3.12A24.11,24.11,0,0,1,9,3.14a21.84,21.84,0,0,1,22.57,0A24.11,24.11,0,0,1,40,11.45,3.13,3.13,0,0,1,40.48,13Z" fill="#666"/></g></g></svg>