<svg xmlns="http://www.w3.org/2000/svg" viewBox="0 0 45.64 26.11"><title>import_icon</title><g id="Layer_2" data-name="Layer 2"><g id="Layer_1_copy" data-name="Layer 1 copy"><line x1="30.29" y1="17.34" x2="35.8" y2="12.36" fill="none" stroke="#666" stroke-linecap="round" stroke-linejoin="round" stroke-width="1.71"/><line x1="30.29" y1="7.58" x2="35.8" y2="11.76" fill="none" stroke="#666" stroke-linecap="round" stroke-linejoin="round" stroke-width="1.71"/><line x1="20.5" y1="12.25" x2="35.38" y2="12.25" fill="none" stroke="#666" stroke-linecap="round" stroke-linejoin="round" stroke-width="1.71"/><g id="X1vBn6.tif"><path d="M15.94,19.61a1.25,1.25,0,0,0,0-.18c-.31-1.8-.61-3.61-.94-5.41a1.31,1.31,0,0,1,.4-1.29C16.7,11.49,18,10.22,19.28,9l.21-.23c-1.94-.28-3.81-.56-5.7-.83a1.22,1.22,0,0,1-1-.72L10.39,2.3,10.24,2l-.15.29C9.28,3.94,8.47,5.57,7.68,7.2a1.15,1.15,0,0,1-.9.7l-4.66.67L1,8.73l0,.08A2.69,2.69,0,0,1,1.23,9c1.29,1.26,2.57,2.52,3.87,3.76A1.24,1.24,0,0,1,5.48,14l-.79,4.59c-.06.35-.11.69-.18,1.08l.27-.13c1.58-.83,3.16-1.64,4.73-2.49A1.4,1.4,0,0,1,11,17c1.56.84,3.14,1.65,4.7,2.48Z" fill="#666" stroke="#666" stroke-linecap="round" stroke-linejoin="round" stroke-width="1.98"/></g><path d="M26,15.81c.25,1,1.7,4.92,2.5,5.49,0,0,2.64,1.87,5.24,3.57a1.16,1.16,0,0,0,1.45,0c2.93-1.93,5.24-3.57,5.24-3.57A4.23,4.23,0,0,0,42,18.92l2.16-8.3.48-1.82-.74-2,.51-1.16a.4.4,0,0,0-.08-.44l-1.4-1.42a2.26,2.26,0,0,0-2.35-.55l-.39.14L38.06,1,34.43,1h0L30.75,1,28.61,3.37l-.38-.13a2.26,2.26,0,0,0-2.37.55L24.43,5.24a.32.32,0,0,0-.06.35l.54,1.2-.74,2" fill="none" stroke="#666" stroke-linecap="round" stroke-linejoin="round" stroke-width="1.98"/></g></g></svg>