<svg xmlns="http://www.w3.org/2000/svg" viewBox="0 0 43.57 43.46"><title>pin_icon</title><g id="Layer_2" data-name="Layer 2"><g id="Layer_1_copy" data-name="Layer 1 copy"><path d="M43.57,11a24.11,24.11,0,0,1-2.35,2.4c-3.79,3-7.64,5.82-11.44,8.77a1.71,1.71,0,0,0-.61,1.31A14.08,14.08,0,0,1,24.9,36l-6.42-6.54L.16,43.46,0,43.32,13.85,25.24,7.33,18.81a13.77,13.77,0,0,1,8.78-4.55,12.47,12.47,0,0,1,3.32,0,1.79,1.79,0,0,0,1.93-.87c3.21-4.13,6.46-8.24,9.7-12.35,1.07-1.36,2.1-1.43,3.32-.21C37.09,3.57,39.81,6.28,42.5,9a10.58,10.58,0,0,1,1.07,1.56Z" fill="#666"/></g></g></svg>