<svg xmlns="http://www.w3.org/2000/svg" viewBox="0 0 46.07 24.15"><title>private_icon</title><g id="Layer_2" data-name="Layer 2"><g id="Layer_1_copy" data-name="Layer 1 copy"><g id="dgbAtP.tif"><path d="M36.19,24H33.5a9.92,9.92,0,0,1-1.28,0,6.11,6.11,0,0,1-5.16-3.6c-.28-.6-.5-1.18-.74-1.79-.5-1.26-1-2.52-1.52-3.76a5.07,5.07,0,0,0-.74-1.16,1.15,1.15,0,0,0-2,0,4.32,4.32,0,0,0-.61.94c-.42.91-.81,1.83-1.19,2.76-.46,1.12-.83,2.28-1.35,3.36a5.52,5.52,0,0,1-4.17,3.09,10.57,10.57,0,0,1-2.12.22H10a9.69,9.69,0,0,1-1.81-.14,7.8,7.8,0,0,1-6.57-5.68,25.29,25.29,0,0,1-.72-3.84A3,3,0,0,0,0,12.53V9.21C1.61,9,2.8,8.71,4.2,8.6a46.43,46.43,0,0,1,13.46.84,24.07,24.07,0,0,0,10,.14,50,50,0,0,1,8.95-1.11,42.68,42.68,0,0,1,9,.62c.34.06.4.2.39.5,0,.84,0,1.68,0,2.52a2.26,2.26,0,0,1-.2.66,11.19,11.19,0,0,0-.57,1.58c-.18.92-.2,1.88-.4,2.8a7.94,7.94,0,0,1-6.36,6.64A10.19,10.19,0,0,1,36.19,24Z" fill="#666"/><path d="M3.28,7.11l1.33-1C6.8,4.52,9,2.91,11.18,1.34A7.15,7.15,0,0,1,14.12.08a4.1,4.1,0,0,1,3.62,1.38.85.85,0,0,1,0,1.15.91.91,0,0,1-1.18.18c-.29-.18-.55-.41-.85-.59a2.36,2.36,0,0,0-2.48-.06,6.28,6.28,0,0,0-1.13.81Q10,4.78,8,6.65a1.07,1.07,0,0,1-.75.3C6,7,4.69,7.05,3.28,7.11Z" fill="#666"/><path d="M42.83,7.11C41.37,7,40,7,38.63,6.93a.85.85,0,0,1-.45-.25L34,2.95a6.58,6.58,0,0,0-.74-.58,2.56,2.56,0,0,0-3.21,0c-.17.12-.33.26-.5.38a.92.92,0,0,1-1.21-.2.87.87,0,0,1,.07-1.19C29.69.24,31.11-.41,32.79.28a15.91,15.91,0,0,1,3.06,1.66c2.29,1.61,4.51,3.31,6.76,5Z" fill="#666"/></g><path d="M36.19,24.15H33.83A15.81,15.81,0,0,1,32.22,24a6.11,6.11,0,0,1-5.16-3.6c-.28-.6-.5-1.18-.74-1.79-.5-1.26-1-2.52-1.52-3.76a5.07,5.07,0,0,0-.74-1.16,1.15,1.15,0,0,0-2,0,4.32,4.32,0,0,0-.61.94c-.42.91-.81,1.83-1.19,2.76-.46,1.12-.83,2.28-1.35,3.36a5.52,5.52,0,0,1-4.17,3.09,10.57,10.57,0,0,1-2.12.22H10a9.69,9.69,0,0,1-1.81-.14,7.8,7.8,0,0,1-6.57-5.68,25.29,25.29,0,0,1-.72-3.84A3,3,0,0,0,0,12.53V9.21C1.61,9,2.8,8.71,4.2,8.6a46.43,46.43,0,0,1,13.46.84,24.07,24.07,0,0,0,10,.14,50,50,0,0,1,8.95-1.11,42.68,42.68,0,0,1,9,.62c.34.06.4.2.39.5,0,.84,0,1.68,0,2.52a2.26,2.26,0,0,1-.2.66,11.19,11.19,0,0,0-.57,1.58c-.18.92-.2,1.88-.4,2.8a7.94,7.94,0,0,1-6.36,6.64A10.34,10.34,0,0,1,36.19,24.15Z" fill="#666"/></g></g></svg>