<svg xmlns="http://www.w3.org/2000/svg" viewBox="0 0 137.78 33.08"><title>sessions_icon</title><g id="Layer_2" data-name="Layer 2"><g id="Layer_1_copy" data-name="Layer 1 copy"><g id="_2pZqHx.tif" data-name="2pZqHx.tif"><path d="M33.4,33.08H0v-.27c0-1.15,0-2.3,0-3.45a4.91,4.91,0,0,1,1.72-3.91,13.7,13.7,0,0,1,4.37-2.61,31.1,31.1,0,0,1,8.16-2,23.09,23.09,0,0,1,6.26.18A30.28,30.28,0,0,1,27.63,23a13.3,13.3,0,0,1,4.07,2.49,5,5,0,0,1,1.68,2.95,4,4,0,0,1,0,.57q0,2,0,3.95S33.4,33,33.4,33.08Z" fill="#666"/><path d="M8.36,8.28a8.35,8.35,0,0,1,16.71,0,8.35,8.35,0,0,1-16.71,0Z" fill="#666"/></g><path d="M34.67,23V13.6H31V11.38a7,7,0,0,0,1.5-.12,3.91,3.91,0,0,0,1.3-.48,3.07,3.07,0,0,0,1.5-2.3h2.37V23Z" fill="#666"/><g id="_2pZqHx.tif-2" data-name="2pZqHx.tif"><path d="M81.06,33.08H47.67v-.27c0-1.15,0-2.3,0-3.45a4.91,4.91,0,0,1,1.72-3.91,13.7,13.7,0,0,1,4.37-2.61,31.1,31.1,0,0,1,8.16-2,23.09,23.09,0,0,1,6.26.18A30.28,30.28,0,0,1,75.29,23a13.3,13.3,0,0,1,4.07,2.49A5,5,0,0,1,81,28.39a4,4,0,0,1,0,.57q0,2,0,3.95S81.06,33,81.06,33.08Z" fill="#666"/><path d="M56,8.28a8.35,8.35,0,0,1,16.71,0A8.35,8.35,0,0,1,56,8.28Z" fill="#666"/></g><path d="M80,11.76a5.37,5.37,0,0,1,1-1.87,4.56,4.56,0,0,1,1.69-1.25A5.75,5.75,0,0,1,85,8.2a5.89,5.89,0,0,1,1.92.31,4.93,4.93,0,0,1,1.6.89,4.26,4.26,0,0,1,1.1,1.43A4.36,4.36,0,0,1,90,12.75a4.57,4.57,0,0,1-.36,1.89,5,5,0,0,1-.94,1.4,8,8,0,0,1-1.33,1.11l-1.5,1q-.75.49-1.47,1a6.59,6.59,0,0,0-1.26,1.31h6.94V23H79.35a6,6,0,0,1,.37-2.2,5.86,5.86,0,0,1,1-1.67,8.72,8.72,0,0,1,1.48-1.36Q83,17.18,84,16.53q.48-.33,1-.68a6.77,6.77,0,0,0,1-.76,4,4,0,0,0,.75-.93,2.3,2.3,0,0,0,.3-1.18,2.08,2.08,0,0,0-2.2-2.24,1.94,1.94,0,0,0-1.1.3,2.26,2.26,0,0,0-.72.79,3.62,3.62,0,0,0-.39,1.08,6.13,6.13,0,0,0-.12,1.17H79.68A6.9,6.9,0,0,1,80,11.76Z" fill="#666"/><g id="_2pZqHx.tif-3" data-name="2pZqHx.tif"><path d="M129.23,33.08H95.84v-.27c0-1.15,0-2.3,0-3.45a4.91,4.91,0,0,1,1.72-3.91,13.7,13.7,0,0,1,4.37-2.61,31.1,31.1,0,0,1,8.16-2,23.09,23.09,0,0,1,6.26.18A30.28,30.28,0,0,1,123.46,23a13.3,13.3,0,0,1,4.07,2.49,5,5,0,0,1,1.68,2.95,4,4,0,0,1,0,.57q0,2,0,3.95S129.23,33,129.23,33.08Z" fill="#666"/><path d="M104.19,8.28a8.35,8.35,0,0,1,16.71,0,8.35,8.35,0,0,1-16.71,0Z" fill="#666"/></g><path d="M132.31,14.37a3.25,3.25,0,0,0,1-.24,1.93,1.93,0,0,0,.78-.57,1.53,1.53,0,0,0,.3-1,1.72,1.72,0,0,0-.63-1.43,2.26,2.26,0,0,0-1.45-.5,2,2,0,0,0-1.71.74,2.84,2.84,0,0,0-.56,1.86h-2.83a6.11,6.11,0,0,1,.41-2,4.66,4.66,0,0,1,1-1.59,4.55,4.55,0,0,1,1.58-1,5.56,5.56,0,0,1,2.05-.36,6.17,6.17,0,0,1,1.76.26,5,5,0,0,1,1.58.78,4.23,4.23,0,0,1,1.14,1.27,3.34,3.34,0,0,1,.44,1.72,3.42,3.42,0,0,1-.51,1.87,2.57,2.57,0,0,1-1.54,1.1v0a3.2,3.2,0,0,1,1.91,1.16,3.39,3.39,0,0,1,.69,2.14,4.38,4.38,0,0,1-1.66,3.53,5.35,5.35,0,0,1-1.74.91,7.14,7.14,0,0,1-4.31,0,4.7,4.7,0,0,1-1.73-1,4.54,4.54,0,0,1-1.1-1.65,5.78,5.78,0,0,1-.37-2.24h2.83a4.14,4.14,0,0,0,.19,1.11,2.72,2.72,0,0,0,.48.91,2.29,2.29,0,0,0,.79.61,2.53,2.53,0,0,0,1.12.23,2.47,2.47,0,0,0,1.7-.61,2.12,2.12,0,0,0,.69-1.67,2.1,2.1,0,0,0-.32-1.27,1.86,1.86,0,0,0-.83-.63,3.47,3.47,0,0,0-1.1-.23q-.6,0-1.14,0V14.37A6.31,6.31,0,0,0,132.31,14.37Z" fill="#666"/></g></g></svg>